<svg width="1440" height="347" viewBox="0 0 1440 347" fill="none" xmlns="http://www.w3.org/2000/svg">
<g clip-path="url(#clip0)">
<path fill-rule="evenodd" clip-rule="evenodd" d="M570.104 262.091C638.522 359.059 796.03 204.323 800.03 166.263C804.03 128.203 721.339 88.3154 615.33 77.1735C509.324 66.0318 420.145 87.8536 416.144 125.915C412.144 163.975 501.685 165.122 570.104 262.091V262.091Z" fill="url(#paint0_linear)"/>
<path fill-rule="evenodd" clip-rule="evenodd" d="M21.262 256.801C66.6096 403.93 322.828 275.813 343.045 230.404C363.262 184.996 277.399 102.659 151.265 46.5006C25.1311 -9.65797 -93.5105 -18.3723 -113.727 27.0355C-133.945 72.4442 -24.0859 109.672 21.262 256.801V256.801Z" fill="url(#paint1_linear)"/>
<path fill-rule="evenodd" clip-rule="evenodd" d="M90.719 182.49C157.944 247.917 243.417 223.066 255.981 194.846C268.544 166.629 214.923 115.345 136.216 80.3025C57.5074 45.2593 -16.482 39.7267 -29.0457 67.9452C-41.609 96.1628 23.4933 117.061 90.719 182.49Z" fill="url(#paint2_linear)"/>
</g>
<defs>
<linearGradient id="paint0_linear" x1="615.33" y1="77.1735" x2="592.942" y2="290.185" gradientUnits="userSpaceOnUse">
<stop stop-color="#606483" stop-opacity="0"/>
<stop offset="1" stop-color="#0B0D19" stop-opacity="0.72"/>
</linearGradient>
<linearGradient id="paint1_linear" x1="151.265" y1="46.5006" x2="38.1171" y2="300.635" gradientUnits="userSpaceOnUse">
<stop stop-color="#606483" stop-opacity="0"/>
<stop offset="1" stop-color="#0B0D19" stop-opacity="0.72"/>
</linearGradient>
<linearGradient id="paint2_linear" x1="136.216" y1="80.3025" x2="91.7656" y2="167.547" gradientUnits="userSpaceOnUse">
<stop stop-color="#0B0D19"/>
<stop offset="1" stop-color="#0B0D19" stop-opacity="0"/>
</linearGradient>
<clipPath id="clip0">
<rect width="1440" height="347" fill="white"/>
</clipPath>
</defs>
</svg>
