<svg width="876" height="780" viewBox="0 0 876 780" fill="none" xmlns="http://www.w3.org/2000/svg">
<path fill-rule="evenodd" clip-rule="evenodd" d="M481.714 549.278C443.964 786.641 44.915 440.976 308.429 376.139C571.942 311.302 386.01 203 481.714 203C577.418 203 655 280.517 655 376.14C655 471.761 519.464 311.915 481.714 549.278Z" fill="url(#paint0_linear)"/>
<path fill-rule="evenodd" clip-rule="evenodd" d="M604 353C509.007 353 432 275.993 432 181C432 86.0069 530.8 -31.4731 604 8.99987C677.2 49.4729 677.2 231.973 776 181C874.8 130.027 698.993 353 604 353V353Z" fill="url(#paint1_radial)"/>
<path fill-rule="evenodd" clip-rule="evenodd" d="M392.286 549.278C430.036 786.641 829.085 440.976 565.571 376.139C302.058 311.302 487.99 203 392.286 203C296.582 203 219 280.517 219 376.14C219 471.761 354.536 311.915 392.286 549.278Z" fill="url(#paint2_linear)"/>
<path fill-rule="evenodd" clip-rule="evenodd" d="M260.608 103L256.984 104.667L256 108.197L257.158 111.557L260.608 113L263.857 111.361L266 108.196L264.38 104.522L260.608 103Z" fill="#C1C3DA"/>
<path fill-rule="evenodd" clip-rule="evenodd" d="M262.304 142L260.492 142.833L260 144.598L260.579 146.278L262.304 147L263.928 146.18L265 144.598L264.19 142.761L262.304 142Z" fill="#6ED321" fill-opacity="0.64"/>
<path fill-rule="evenodd" clip-rule="evenodd" d="M234.686 124L231.787 125.334L231 128.157L231.926 130.845L234.686 132L237.286 130.69L239 128.157L237.705 125.217L234.686 124Z" fill="#4234F8" fill-opacity="0.64"/>
<defs>
<linearGradient id="paint0_linear" x1="437" y1="203" x2="437" y2="631.48" gradientUnits="userSpaceOnUse">
<stop stop-color="#268DF7"/>
<stop offset="1" stop-color="#268DF7" stop-opacity="0"/>
</linearGradient>
<radialGradient id="paint1_radial" cx="0" cy="0" r="1" gradientUnits="userSpaceOnUse" gradientTransform="translate(634.668 -78.957) rotate(-104.397) scale(215.603 193.478)">
<stop stop-color="#6ED321" stop-opacity="0"/>
<stop offset="0.51712" stop-color="#6ED321" stop-opacity="0.64"/>
<stop offset="1" stop-color="#6ED321" stop-opacity="0.24"/>
</radialGradient>
<linearGradient id="paint2_linear" x1="437" y1="203" x2="437" y2="631.48" gradientUnits="userSpaceOnUse">
<stop stop-color="#268DF7" stop-opacity="0.8"/>
<stop offset="1" stop-color="#268DF7" stop-opacity="0"/>
</linearGradient>
</defs>
</svg>
