<svg width="554" height="157" viewBox="0 0 554 157" fill="none" xmlns="http://www.w3.org/2000/svg">
<path d="M244.213 77.1382C244.213 71.9801 243.529 68.3265 242.161 66.1772C240.865 64.028 238.597 62.9534 235.357 62.9534C234.349 62.9534 233.304 63.0251 232.224 63.1683C231.144 63.24 230.1 63.3474 229.092 63.4907V107.12H213V52.5297C214.368 52.1715 215.952 51.8133 217.752 51.4551C219.624 51.0253 221.568 50.6671 223.584 50.3805C225.672 50.0223 227.796 49.7716 229.956 49.6283C232.116 49.4134 234.241 49.3059 236.329 49.3059C240.433 49.3059 243.745 49.8432 246.265 50.9178C248.857 51.9208 250.981 53.1387 252.637 54.5715C254.941 52.9237 257.569 51.6342 260.521 50.7029C263.545 49.7716 266.317 49.3059 268.837 49.3059C273.373 49.3059 277.082 49.9507 279.962 51.2402C282.914 52.4581 285.254 54.2133 286.982 56.5058C288.71 58.7983 289.898 61.5206 290.546 64.6728C291.194 67.825 291.518 71.3354 291.518 75.2039V107.12H275.426V77.1382C275.426 71.9801 274.742 68.3265 273.373 66.1772C272.077 64.028 269.809 62.9534 266.569 62.9534C265.705 62.9534 264.481 63.1683 262.897 63.5982C261.385 64.028 260.125 64.5653 259.117 65.2101C259.621 66.8578 259.945 68.613 260.089 70.4757C260.233 72.2667 260.305 74.201 260.305 76.2785V107.12H244.213V77.1382Z" fill="white"/>
<path d="M324.318 95.9439C325.902 95.9439 327.414 95.908 328.854 95.8364C330.294 95.7648 331.446 95.6573 332.31 95.514V83.371C331.662 83.2277 330.69 83.0844 329.394 82.9411C328.098 82.7978 326.91 82.7262 325.83 82.7262C324.318 82.7262 322.878 82.8337 321.51 83.0486C320.214 83.1919 319.062 83.5142 318.054 84.0157C317.046 84.5172 316.254 85.1978 315.678 86.0575C315.102 86.9172 314.814 87.9918 314.814 89.2813C314.814 91.7887 315.642 93.5439 317.298 94.5469C319.026 95.4782 321.366 95.9439 324.318 95.9439ZM323.022 49.091C327.774 49.091 331.734 49.6283 334.902 50.7029C338.07 51.7775 340.59 53.3178 342.462 55.3237C344.406 57.3296 345.774 59.7654 346.566 62.631C347.358 65.4966 347.754 68.6847 347.754 72.195V105.508C345.45 106.009 342.246 106.582 338.142 107.227C334.038 107.944 329.07 108.302 323.238 108.302C319.566 108.302 316.218 107.979 313.194 107.335C310.242 106.69 307.685 105.651 305.525 104.218C303.365 102.714 301.709 100.78 300.557 98.4154C299.405 96.0513 298.829 93.1499 298.829 89.7111C298.829 86.4157 299.477 83.6217 300.773 81.3292C302.141 79.0367 303.941 77.2099 306.173 75.8487C308.406 74.4875 310.962 73.5204 313.842 72.9473C316.722 72.3025 319.71 71.9801 322.806 71.9801C324.894 71.9801 326.73 72.0876 328.314 72.3025C329.97 72.4458 331.302 72.6607 332.31 72.9473V71.4428C332.31 68.7205 331.482 66.5354 329.826 64.8877C328.17 63.24 325.29 62.4161 321.186 62.4161C318.45 62.4161 315.75 62.631 313.086 63.0609C310.422 63.4191 308.117 63.9564 306.173 64.6728L304.121 51.7775C305.057 51.4909 306.209 51.2044 307.577 50.9178C309.018 50.5596 310.566 50.2731 312.222 50.0581C313.878 49.7716 315.606 49.5567 317.406 49.4134C319.278 49.1985 321.15 49.091 323.022 49.091Z" fill="white"/>
<path d="M351.144 127C350.136 127 348.66 126.893 346.716 126.678C344.7 126.463 342.828 126.069 341.1 125.496L343.26 112.493C344.34 112.851 345.348 113.102 346.284 113.245C347.148 113.388 348.264 113.46 349.632 113.46C352.152 113.46 353.916 112.708 354.924 111.203C355.932 109.699 356.436 107.514 356.436 104.648V52.9315C356.436 52.9315 356.221 51.086 362.678 48.7499C369.134 46.4138 372.529 47.0913 372.529 47.0913V105.078C372.529 112.529 370.693 118.045 367.021 121.627C363.349 125.209 358.056 127 351.144 127Z" fill="white"/>
<path d="M434.924 78.7501C434.924 83.1918 434.276 87.2754 432.979 91.0007C431.683 94.6543 429.811 97.8065 427.363 100.457C424.915 103.036 421.963 105.042 418.507 106.475C415.123 107.908 411.307 108.624 407.059 108.624C402.883 108.624 399.067 107.908 395.611 106.475C392.226 105.042 389.31 103.036 386.862 100.457C384.414 97.8065 382.506 94.6543 381.138 91.0007C379.77 87.2754 379.086 83.1918 379.086 78.7501C379.086 74.3084 379.77 70.2607 381.138 66.6071C382.578 62.9534 384.522 59.8371 386.97 57.258C389.49 54.6789 392.442 52.673 395.827 51.2402C399.283 49.8074 403.027 49.091 407.059 49.091C411.163 49.091 414.907 49.8074 418.291 51.2402C421.747 52.673 424.699 54.6789 427.147 57.258C429.595 59.8371 431.503 62.9534 432.871 66.6071C434.24 70.2607 434.924 74.3084 434.924 78.7501ZM418.507 78.7501C418.507 73.8069 417.499 69.9384 415.483 67.1444C413.539 64.2788 410.731 62.846 407.059 62.846C403.387 62.846 400.543 64.2788 398.527 67.1444C396.511 69.9384 395.503 73.8069 395.503 78.7501C395.503 83.6933 396.511 87.6336 398.527 90.5708C400.543 93.4365 403.387 94.8693 407.059 94.8693C410.731 94.8693 413.539 93.4365 415.483 90.5708C417.499 87.6336 418.507 83.6933 418.507 78.7501Z" fill="white"/>
<path d="M476.93 64.7802C475.49 64.422 473.798 64.0638 471.854 63.7056C469.91 63.2758 467.822 63.0609 465.59 63.0609C464.582 63.0609 463.358 63.1683 461.918 63.3833C460.55 63.5265 459.506 63.7056 458.786 63.9206V107.12H442.694V53.6043C445.574 52.6014 448.958 51.67 452.846 50.8104C456.806 49.879 461.198 49.4134 466.022 49.4134C466.886 49.4134 467.93 49.485 469.154 49.6283C470.378 49.6999 471.602 49.8432 472.826 50.0581C474.05 50.2014 475.274 50.4163 476.498 50.7029C477.722 50.9178 478.767 51.2044 479.631 51.5626L476.93 64.7802Z" fill="white"/>
<path d="M529.915 95.6215C532.868 95.6215 534.956 95.3349 536.18 94.7618C537.404 94.1887 538.016 93.0782 538.016 91.4305C538.016 90.141 537.224 89.0306 535.64 88.0992C534.056 87.0963 531.643 85.9858 528.403 84.7679C525.883 83.8366 523.579 82.8695 521.491 81.8665C519.475 80.8635 517.747 79.6815 516.307 78.3203C514.867 76.8875 513.751 75.2039 512.959 73.2696C512.167 71.3353 511.771 69.007 511.771 66.2847C511.771 60.9833 513.751 56.7923 517.711 53.7118C521.671 50.6313 527.107 49.091 534.02 49.091C537.476 49.091 540.788 49.4134 543.956 50.0581C547.124 50.6313 549.644 51.276 551.516 51.9924C551.516 51.9924 548.747 61.0145 547.444 61.9863C546.14 62.9581 544.784 63.24 542.552 62.7385C540.392 62.237 537.944 61.9863 535.208 61.9863C530.167 61.9863 527.647 63.3833 527.647 66.1772C527.647 66.822 527.755 67.3951 527.971 67.8966C528.187 68.3981 528.619 68.8996 529.267 69.4011C529.915 69.8309 530.779 70.3324 531.859 70.9055C533.012 71.407 534.452 71.9801 536.18 72.6249C539.708 73.9144 542.624 75.2039 544.928 76.4935C547.232 77.7114 549.032 79.0725 550.328 80.577C551.696 82.0098 552.632 83.6217 553.136 85.4127C553.712 87.2037 554 89.2813 554 91.6454C554 97.2334 551.876 101.46 547.628 104.326C543.452 107.191 537.512 108.624 529.807 108.624C524.767 108.624 520.555 108.194 517.171 107.335C513.859 106.475 511.555 105.759 510.259 105.185L511.768 98.9761C511.768 98.9761 512.355 95.472 514.703 94.3039C517.051 93.1359 518.503 94.117 521.383 94.7618C524.263 95.3349 527.107 95.6215 529.915 95.6215Z" fill="white"/>
<path d="M502.002 107.12H485.909V55.1393C485.909 55.1393 485.694 53.2938 492.151 50.9577C498.607 48.6216 502.002 49.2991 502.002 49.2991V107.12Z" fill="white"/>
<mask id="mask0" mask-type="alpha" maskUnits="userSpaceOnUse" x="0" y="0" width="157" height="157">
<rect width="157" height="157" rx="78.5" fill="url(#paint0_linear)"/>
</mask>
<g mask="url(#mask0)">
<path d="M15.3077 119.32C9.65566 120.576 7.19599 126.908 6.67266 129.918L0.785156 131.488L3.53266 165.243H157.393C157.654 154.514 158.833 133.013 148.758 129.525C138.553 125.993 136.198 125.6 124.815 126.778C113.433 127.955 113.825 134.235 108.33 135.02C103.934 135.648 99.1718 131.88 97.3402 129.918C94.9852 127.17 89.4117 119.791 85.9577 112.255C81.6402 102.835 82.4252 97.34 78.1077 98.125C73.7902 98.91 66.3327 123.245 63.1927 123.245C60.0527 123.245 60.0527 119.32 54.9502 119.32C49.8477 119.32 47.8852 129.918 43.1752 129.918C38.4652 129.918 35.7177 125.208 32.5777 123.245C29.4377 121.283 22.3727 117.75 15.3077 119.32Z" fill="white"/>
<rect x="-1.56982" y="-1.57001" width="160.14" height="160.14" rx="80.07" fill="url(#paint1_linear)"/>
<path d="M8.14644 110.86C1.92076 112.122 -0.788562 118.484 -1.36501 121.508L-7.8501 123.085L-4.82373 157H164.653C164.941 146.221 166.24 124.617 155.142 121.113C143.901 117.564 141.307 117.17 128.769 118.353C116.231 119.536 116.664 125.846 110.611 126.634C105.769 127.265 100.523 123.479 98.5053 121.508C95.9112 118.747 89.772 111.333 85.9674 103.761C81.2117 94.2968 82.0764 88.7758 77.3207 89.5645C72.5649 90.3532 64.3505 114.804 60.8918 114.804C57.4331 114.804 57.4331 110.86 51.8127 110.86C46.1923 110.86 44.0306 121.508 38.8425 121.508C33.6544 121.508 30.6281 116.775 27.1694 114.804C23.7106 112.832 15.9285 109.282 8.14644 110.86Z" fill="#F7F9FC"/>
<path d="M8.14644 124.205C1.92076 125.467 -0.788562 131.829 -1.36501 134.853L-7.8501 136.43L-4.82373 170.345H164.653C164.941 159.566 166.24 137.962 155.142 134.458C143.901 130.909 141.307 130.515 128.769 131.698C116.231 132.881 116.664 139.191 110.611 139.979C105.769 140.61 100.523 136.824 98.5053 134.853C95.9112 132.092 89.772 124.678 85.9674 117.106C81.2117 107.642 82.0764 102.121 77.3207 102.91C72.5649 103.698 64.3505 128.149 60.8918 128.149C57.4331 128.149 57.4331 124.205 51.8127 124.205C46.1923 124.205 44.0306 134.853 38.8425 134.853C33.6544 134.853 30.6281 130.12 27.1694 128.149C23.7106 126.177 15.9285 122.627 8.14644 124.205Z" fill="url(#paint2_linear)"/>
<path fill-rule="evenodd" clip-rule="evenodd" d="M57.5 44.5C57.5 32.5 66.8996 23.12 78.5 23.12C85.5 23.12 96.5 29 98.5 41.5C98.8664 49.1945 96.0108 53.1299 92.8845 57.4383C91.7446 59.0092 90.5688 60.6297 89.5 62.5C85.6751 67.7658 82.4344 76.1872 80.8703 80.2517C80.3552 81.5903 80.0219 82.4564 79.9095 82.5816C79.1579 83.4186 77.8434 83.4201 77.0905 82.5816C76.9806 82.4592 76.695 81.8982 76.241 81.0067C74.6415 77.8655 70.9525 70.6209 65.5 64C59.5233 56.7426 57.5 49.9681 57.5 44.5ZM78 52C82.4183 52 86 48.4183 86 44C86 39.5817 82.4183 36 78 36C73.5817 36 70 39.5817 70 44C70 48.4183 73.5817 52 78 52Z" fill="white"/>
</g>
<defs>
<linearGradient id="paint0_linear" x1="0" y1="133.535" x2="152.734" y2="133.535" gradientUnits="userSpaceOnUse">
<stop stop-color="#59A7FF"/>
<stop offset="1" stop-color="#1985FF"/>
</linearGradient>
<linearGradient id="paint1_linear" x1="158.534" y1="52.8959" x2="-1.5329" y2="52.8959" gradientUnits="userSpaceOnUse">
<stop stop-color="#2072EB"/>
<stop offset="0.500103" stop-color="#0593FF"/>
<stop offset="1" stop-color="#5CB4FF"/>
</linearGradient>
<linearGradient id="paint2_linear" x1="155.006" y1="144.964" x2="-1.53375" y2="144.964" gradientUnits="userSpaceOnUse">
<stop stop-color="#D8E1F1"/>
<stop offset="0.481831" stop-color="#E4E9F2"/>
<stop offset="1" stop-color="#EDF0F4"/>
</linearGradient>
</defs>
</svg>
