<svg width="1000" height="800" viewBox="0 0 1000 800" fill="none" xmlns="http://www.w3.org/2000/svg">
<rect width="1000" height="800" fill="white"/>
<path d="M335.6 273.8C319 293.1 298.7 309 275.5 319.5C258.3 327.3 237.5 333.1 217.9 329.3C173.1 320.6 203.6 240.1 280.1 221.7C356.6 203.3 358.6 230.7 357.2 240.5C356.2 246.8 347.4 260 335.6 273.8Z" fill="url(#paint0_linear)"/>
<path d="M392.8 249C344.7 306.2 281.4 348.9 210.1 371.6C208.7 372.1 207.2 372.5 205.7 373C111.9 402.2 58.3 497.5 108.4 593.9C158.5 690.3 394.7 723.7 609.6 661.4C824.5 599.1 920.1 431.3 850.8 266.3C781.5 101.2 645.6 95.2 568.7 114C502.9 130 435.2 198.5 392.8 249Z" fill="url(#paint1_linear)"/>
<path d="M104.541 578L84 552.994L222.544 439.538L267.67 471.096L421.292 359.715L468.603 391.382L762.627 204L780 231.19L468.166 429.929L422.057 399.135L267.888 510.844L224.074 480.05L104.541 578Z" fill="url(#paint2_linear)"/>
<path d="M826 181L733 204.829L749.245 230.414L765.49 256L826 181Z" fill="#FCB300"/>
<path d="M208.6 619.7C208.6 619.7 214.9 651.1 217.9 669.1C220.9 687.1 193 752.9 193 752.9C193 752.9 183.9 745.4 183.9 743.9C183.9 742.4 190 681.5 190 681.5L179.9 643.6L143.8 731.9L131 726.9L153.5 622.3C153.6 622.4 187.8 596.3 208.6 619.7Z" fill="#290133"/>
<path d="M706.601 331H310.701C307.201 331 304.301 333.8 304.301 337.4V551.1H324.201H713.001V337.4C713.001 333.9 710.101 331 706.601 331Z" fill="#151A30"/>
<path d="M508.601 631.1H453.601C450.901 631.1 448.801 633.3 448.801 635.9C448.801 638.6 451.001 640.7 453.601 640.7H508.601H563.601C566.301 640.7 568.401 638.5 568.401 635.9C568.401 633.2 566.201 631.1 563.601 631.1H508.601Z" fill="#151A30"/>
<path d="M693.101 350.5H324.201V524.8H693.101V350.5Z" fill="#449CFF"/>
<path d="M304.301 551.1V579.3C304.301 582.8 307.101 585.7 310.701 585.7H706.601C710.101 585.7 713.001 582.9 713.001 579.3V551.1H304.301Z" fill="#449CFF"/>
<path d="M463.4 585.6L458.1 631.1H508.6H559.2L553.9 585.6H463.4Z" fill="#192038"/>
<path d="M209.5 508.8L208.5 501.5C208.5 501.5 210.5 498 209.5 493.3C208.5 488.6 206 490.8 206 490.8C206 490.8 204.5 485.4 198.3 486.4C192.1 487.4 184.7 491.6 182.5 493.1C180.3 494.6 177.101 499.8 177.601 504.5C177.601 504.5 174.1 509.2 178.8 515.9C183.5 522.6 189.401 526.3 196.101 526.3C202.801 526.1 209.5 508.8 209.5 508.8Z" fill="#290133"/>
<path d="M512.8 315.6H498.5H484.1L457.5 498.5H498.5H539.4L512.8 315.6Z" fill="url(#paint3_linear)"/>
<path d="M512.8 315.6H498.5H484.1L457.5 498.5H498.5H539.4L512.8 315.6Z" fill="white" fill-opacity="0.2"/>
<path d="M324.2 524.8H693.1V457.1C691 456.7 688.9 456.5 686.7 456.5C673.2 456.5 661.4 464.1 655.4 475.3C655 475.3 654.7 475.3 654.3 475.3C645.1 475.3 637.2 480.6 633.5 488.3C629.3 485.2 624.1 483.3 618.5 483.3C614.4 483.3 610.6 484.3 607.1 486C602 477 592.3 471 581.3 471C568.9 471 558.3 478.6 553.9 489.3C551.4 487.7 548.5 486.8 545.3 486.8C542.4 486.8 539.7 487.6 537.3 489C533.7 481.1 525.8 475.7 516.6 475.7C510.2 475.7 504.4 478.3 500.3 482.6C495.3 477.9 488.6 475 481.2 475C470.1 475 460.6 481.5 456.1 490.9C452.9 488.4 448.9 487 444.5 487C439.8 487 435.5 488.7 432.2 491.6C429 478.1 416.9 468 402.5 468C391.8 468 382.4 473.5 376.9 481.8C372.7 477.8 367.1 475.4 360.9 475.4C360.5 475.4 360.2 475.4 359.8 475.4C353.8 464.2 342.1 456.6 328.5 456.6C327 456.6 325.6 456.7 324.1 456.9V524.8H324.2Z" fill="#E4E9F2"/>
<path d="M822.401 438.9C874.15 438.9 916.101 396.949 916.101 345.2C916.101 293.451 874.15 251.5 822.401 251.5C770.652 251.5 728.701 293.451 728.701 345.2C728.701 396.949 770.652 438.9 822.401 438.9Z" fill="#1D2643"/>
<path d="M822.401 416.9C862 416.9 894.101 384.799 894.101 345.2C894.101 305.601 862 273.5 822.401 273.5C782.802 273.5 750.701 305.601 750.701 345.2C750.701 384.799 782.802 416.9 822.401 416.9Z" fill="url(#paint4_linear)"/>
<path d="M822.402 400.6C852.998 400.6 877.802 375.797 877.802 345.2C877.802 314.603 852.998 289.8 822.402 289.8C791.805 289.8 767.002 314.603 767.002 345.2C767.002 375.797 791.805 400.6 822.402 400.6Z" fill="#1D2643"/>
<path d="M822.401 382.4C842.946 382.4 859.601 365.745 859.601 345.2C859.601 324.655 842.946 308 822.401 308C801.856 308 785.201 324.655 785.201 345.2C785.201 365.745 801.856 382.4 822.401 382.4Z" fill="url(#paint5_linear)"/>
<path d="M822.402 365.1C833.392 365.1 842.302 356.191 842.302 345.2C842.302 334.21 833.392 325.3 822.402 325.3C811.411 325.3 802.502 334.21 802.502 345.2C802.502 356.191 811.411 365.1 822.402 365.1Z" fill="#1D2643"/>
<path d="M208.501 501.4C208.501 501.4 214.401 512.7 212.701 518.1C211.001 523.5 206.501 523.5 205.501 524.8C204.501 526 204.001 532.2 204.001 532.2H196.101V526C196.101 526 191.901 524 190.701 523C189.501 522 187.201 517.9 191.701 516.7C196.101 515.6 196.401 507.4 198.901 506.7C201.301 506.1 207.501 505 208.501 501.4Z" fill="white"/>
<path d="M199.101 528.8C199.101 528.8 188.001 529 181.101 532.3C174.201 535.5 161.501 545.6 157.401 551.1C151.601 558.9 147.301 564.2 147.301 564.2C147.301 564.2 153.201 571.4 160.401 573.8C160.401 573.8 157.201 588.6 155.501 601C153.801 613.4 153.801 622.5 153.801 622.5C153.801 622.5 166.201 627.7 183.901 627.7C201.601 627.7 211.301 617.6 211.301 617.6C211.301 617.6 212.301 590.2 216.501 573.6C220.701 557 233.101 541.7 233.101 541.7C233.101 541.7 225.901 532.8 215.801 528.8C215.801 528.8 210.201 535.5 201.201 530.5L199.101 528.8Z" fill="#FCB300"/>
<path d="M150.901 565.1C148.801 565.2 138.001 583.1 133.801 592C129.601 600.9 124.701 620.2 124.701 620.2L132.801 629.5C132.801 629.5 143.501 598.7 148.901 591C154.301 583.3 163.001 573.7 163.001 573.7C163.001 573.7 159.101 564.9 150.901 565.1Z" fill="white"/>
<path d="M216.201 448L244.801 495.7L251.501 491L222.801 442.5L216.201 448Z" fill="#1D2643"/>
<path d="M215.6 530.6C215.6 530.6 223 524.2 226.5 516.5C230 508.8 231.2 469.8 231.2 469.8C231.2 469.8 226.3 467.1 223.4 463.1C220.6 459.1 228 454.9 233.7 458.2C239.4 461.4 238.6 462.9 240.9 470.1C243.1 477.3 241.9 512.4 240.9 519.5C239.9 526.7 227.1 545.8 227.1 545.8L215.6 530.6Z" fill="white"/>
<path d="M220.6 443.7L254.7 377.8L296 430.4L228 454.9L220.6 443.7Z" fill="#1D2643"/>
<path d="M585.3 688.3C610.65 688.3 631.2 667.75 631.2 642.4C631.2 617.05 610.65 596.5 585.3 596.5C559.95 596.5 539.4 617.05 539.4 642.4C539.4 667.75 559.95 688.3 585.3 688.3Z" fill="#FCB300"/>
<path d="M585.301 676.4C604.078 676.4 619.301 661.178 619.301 642.4C619.301 623.622 604.078 608.4 585.301 608.4C566.523 608.4 551.301 623.622 551.301 642.4C551.301 661.178 566.523 676.4 585.301 676.4Z" fill="#F79800"/>
<path d="M583 656.8C579.8 656.7 576.6 655.9 573.6 654.6V647.2C575.3 648.1 577.2 648.8 579.2 649.4C581.2 650 583 650.3 584.5 650.3C585.8 650.3 586.7 650.1 587.3 649.8C587.9 649.5 588.2 649 588.2 648.3C588.2 647.8 588 647.4 587.6 647.1C587.2 646.8 586.5 646.4 585.5 645.9C584.5 645.5 583.2 645 581.5 644.3C579.6 643.6 578.1 642.8 577 642C575.8 641.1 575 640.2 574.5 639.1C574 638 573.7 636.7 573.7 635.1C573.7 632.7 574.5 630.8 576 629.4C577.6 628 579.9 627.2 583 626.9V623.9H587.6V626.9C590.5 627.1 593.5 627.8 596.5 629.1L593.9 635.4C590.8 634 588 633.3 585.5 633.3C584.3 633.3 583.5 633.4 583 633.7C582.5 634 582.3 634.4 582.3 635C582.3 635.5 582.5 635.9 582.8 636.2C583.1 636.5 583.7 636.9 584.6 637.3C585.5 637.7 586.6 638.1 588.2 638.7C591.3 639.8 593.5 641 594.9 642.4C596.2 643.8 596.9 645.6 596.9 647.8C596.9 650.3 596.1 652.3 594.5 653.9C592.9 655.5 590.6 656.4 587.6 656.8V661.1H583V656.8Z" fill="white"/>
<path d="M661.9 674C691.116 674 714.8 650.316 714.8 621.1C714.8 591.884 691.116 568.2 661.9 568.2C632.684 568.2 609 591.884 609 621.1C609 650.316 632.684 674 661.9 674Z" fill="#FCB300"/>
<path d="M661.899 660.3C683.549 660.3 701.099 642.749 701.099 621.1C701.099 599.45 683.549 581.9 661.899 581.9C640.25 581.9 622.699 599.45 622.699 621.1C622.699 642.749 640.25 660.3 661.899 660.3Z" fill="#F79800"/>
<path d="M652.7 635.1C649.4 633.4 646.4 631.2 643.9 628.4L647.4 620.7C648.8 622.4 650.4 624.1 652.2 625.7C654 627.3 655.7 628.4 657.3 629.1C658.6 629.7 659.7 630 660.4 629.9C661.2 629.9 661.7 629.5 662 628.7C662.2 628.2 662.2 627.7 661.9 627.1C661.6 626.5 661.1 625.8 660.2 624.9C659.4 624 658.2 622.8 656.8 621.4C655.2 619.8 653.9 618.2 653.1 616.8C652.3 615.3 651.9 613.9 651.8 612.6C651.8 611.2 652.1 609.7 652.9 608C654.1 605.4 655.8 603.8 658.1 603.1C660.4 602.4 663.3 602.6 666.7 603.8L668.1 600.6L672.9 602.8L671.5 605.9C674.5 607.5 677.3 609.6 679.8 612.4L674 617.8C671.4 614.9 668.8 612.8 666.2 611.6C665 611 664 610.8 663.4 610.9C662.8 611 662.3 611.3 662 611.9C661.8 612.4 661.8 612.9 662 613.4C662.2 613.9 662.7 614.6 663.4 615.4C664.1 616.2 665.1 617.3 666.5 618.5C669.2 621.1 671 623.5 671.7 625.6C672.4 627.7 672.3 629.9 671.2 632.2C670 634.8 668.2 636.5 665.8 637.4C663.4 638.3 660.5 638.2 657.2 637.1L655.2 641.6L650.4 639.4L652.7 635.1Z" fill="white"/>
<path d="M596.9 623.8C622.858 623.8 643.9 602.757 643.9 576.8C643.9 550.843 622.858 529.8 596.9 529.8C570.943 529.8 549.9 550.843 549.9 576.8C549.9 602.757 570.943 623.8 596.9 623.8Z" fill="#FCB300"/>
<path d="M596.9 611.7C616.175 611.7 631.8 596.075 631.8 576.8C631.8 557.525 616.175 541.9 596.9 541.9C577.625 541.9 562 557.525 562 576.8C562 596.075 577.625 611.7 596.9 611.7Z" fill="#F79800"/>
<path d="M608.2 586.5C606.3 589.2 604 591.6 601.2 593.5L594.8 589.5C596.5 588.5 598.1 587.3 599.7 585.8C601.3 584.4 602.5 583 603.3 581.7C604 580.6 604.3 579.7 604.4 579.1C604.5 578.4 604.2 577.9 603.6 577.5C603.2 577.2 602.7 577.2 602.2 577.4C601.7 577.6 601 578 600.1 578.6C599.2 579.2 598 580.1 596.6 581.2C595 582.5 593.5 583.4 592.1 583.9C590.7 584.4 589.4 584.6 588.2 584.5C587 584.4 585.7 583.9 584.3 583C582.2 581.7 580.9 580 580.6 577.9C580.3 575.8 580.8 573.3 582.2 570.4L579.6 568.8L582.1 564.8L584.7 566.4C586.4 563.9 588.7 561.7 591.4 559.8L595.5 565.5C592.6 567.4 590.5 569.5 589.2 571.6C588.6 572.6 588.2 573.4 588.2 574C588.2 574.6 588.4 575 588.9 575.3C589.3 575.6 589.8 575.6 590.2 575.5C590.7 575.4 591.3 575 592.1 574.5C592.9 574 593.9 573.2 595.2 572.1C597.8 570 600.1 568.7 602.1 568.3C604 567.9 606 568.3 607.9 569.5C610.1 570.8 611.4 572.6 611.9 574.8C612.4 577 612 579.5 610.7 582.4L614.4 584.7L611.9 588.7L608.2 586.5Z" fill="white"/>
<path d="M500.2 553.9C521.297 553.9 538.4 536.797 538.4 515.7C538.4 494.603 521.297 477.5 500.2 477.5C479.103 477.5 462 494.603 462 515.7C462 536.797 479.103 553.9 500.2 553.9Z" fill="#FCB300"/>
<path d="M500.2 544C515.83 544 528.5 531.33 528.5 515.7C528.5 500.07 515.83 487.4 500.2 487.4C484.571 487.4 471.9 500.07 471.9 515.7C471.9 531.33 484.571 544 500.2 544Z" fill="#F79800"/>
<path d="M503.401 527.4C500.901 528.4 498.301 528.9 495.601 529L493.101 523.4C494.701 523.5 496.401 523.4 498.101 523.1C499.801 522.9 501.301 522.5 502.401 521.9C503.401 521.5 504.001 521 504.301 520.6C504.601 520.2 504.701 519.7 504.401 519.1C504.201 518.7 503.901 518.5 503.501 518.4C503.101 518.3 502.401 518.2 501.501 518.3C500.601 518.3 499.401 518.4 498.001 518.5C496.301 518.6 494.901 518.6 493.801 518.3C492.601 518 491.701 517.6 490.901 517C490.101 516.4 489.501 515.4 488.901 514.2C488.101 512.4 488.001 510.6 488.701 509.1C489.401 507.5 490.901 506.1 493.201 504.7L492.201 502.4L495.701 500.8L496.701 503.1C499.001 502.2 501.501 501.7 504.201 501.7L504.401 507.4C501.601 507.4 499.201 507.8 497.401 508.7C496.501 509.1 495.901 509.5 495.701 509.9C495.401 510.3 495.401 510.7 495.601 511.1C495.801 511.5 496.001 511.7 496.401 511.8C496.801 511.9 497.401 512 498.101 512C498.901 512 499.901 511.9 501.301 511.8C504.001 511.6 506.101 511.7 507.601 512.3C509.101 512.9 510.201 514 511.001 515.7C511.901 517.6 512.001 519.4 511.301 521.1C510.601 522.8 509.201 524.3 507.101 525.7L508.601 528.9L505.101 530.5L503.401 527.4Z" fill="white"/>
<path d="M633.701 502.2C647.729 502.2 659.101 490.828 659.101 476.8C659.101 462.772 647.729 451.4 633.701 451.4C619.673 451.4 608.301 462.772 608.301 476.8C608.301 490.828 619.673 502.2 633.701 502.2Z" fill="#FCB300"/>
<path d="M633.701 495.7C644.139 495.7 652.601 487.238 652.601 476.8C652.601 466.362 644.139 457.9 633.701 457.9C623.263 457.9 614.801 466.362 614.801 476.8C614.801 487.238 623.263 495.7 633.701 495.7Z" fill="#F79800"/>
<path d="M629 483.3C627.4 482.4 626.1 481.3 624.9 479.9L626.8 476.3C627.4 477.2 628.2 478 629 478.8C629.8 479.6 630.6 480.2 631.4 480.6C632 480.9 632.5 481.1 632.9 481.1C633.3 481.1 633.5 480.9 633.7 480.6C633.8 480.4 633.8 480.1 633.7 479.8C633.6 479.5 633.3 479.2 633 478.7C632.6 478.2 632.1 477.6 631.4 476.9C630.6 476.1 630.1 475.3 629.7 474.6C629.4 473.9 629.2 473.2 629.2 472.5C629.2 471.8 629.4 471.1 629.8 470.3C630.4 469.1 631.3 468.4 632.4 468.1C633.5 467.8 634.9 468 636.5 468.6L637.3 467.1L639.6 468.3L638.8 469.8C640.2 470.6 641.5 471.7 642.6 473.1L639.7 475.5C638.5 474 637.3 473 636.1 472.4C635.5 472.1 635.1 472 634.8 472C634.5 472 634.3 472.2 634.1 472.4C634 472.6 634 472.9 634.1 473.1C634.2 473.3 634.4 473.7 634.7 474.1C635 474.5 635.5 475 636.1 475.7C637.3 477 638.1 478.2 638.4 479.2C638.7 480.2 638.6 481.3 638 482.4C637.4 483.6 636.5 484.4 635.3 484.8C634.1 485.2 632.8 485.1 631.2 484.5L630.1 486.6L627.8 485.4L629 483.3Z" fill="white"/>
<path d="M528.5 630.6H458.1V631.6H528.5V630.6Z" fill="white"/>
<path d="M640.6 386L801.3 359.9L677.7 393L640.6 386Z" fill="white"/>
<path d="M740.399 428.1L688.699 399.3L801.299 359.9L740.399 428.1Z" fill="white"/>
<path d="M677.699 393L682.299 428.1L688.699 399.3L801.299 359.9L677.699 393Z" fill="white"/>
<path d="M688.699 399.3L682.299 428.1L712.899 412.8L688.699 399.3Z" fill="white"/>
<path d="M682.7 428.2L682 428.1L688.4 399.1L688.6 399L774.4 368.9L774.6 369.6L689 399.6L682.7 428.2Z" fill="url(#paint6_linear)"/>
<path d="M677.8 393.3L677.6 392.6L783.4 364.3L783.6 365L677.8 393.3Z" fill="url(#paint7_linear)"/>
<path d="M702.3 407.4L688.5 399.7L688.9 399L702.7 406.7L702.3 407.4Z" fill="url(#paint8_linear)"/>
<path d="M288.932 354.866L287.135 353.988L273.306 382.291L275.103 383.169L288.932 354.866Z" fill="#1D2643"/>
<path d="M305.017 383.514L303.654 382.051L287.335 397.248L288.698 398.712L305.017 383.514Z" fill="#1D2643"/>
<path d="M330.042 408.127L329.412 406.229L297.617 416.778L298.247 418.676L330.042 408.127Z" fill="#1D2643"/>
<path d="M506.201 71.4C502.601 65.8 494.401 65.8 490.801 71.4C475.701 94.7999 443.801 150.8 446.301 202.2C449.601 269.4 480.701 295.1 480.701 295.1H498.601H516.501C516.501 295.1 547.601 269.3 550.901 202.2C553.201 150.8 521.301 94.9 506.201 71.4Z" fill="#449CFF"/>
<path d="M449.301 229.1C449.301 229.1 446.401 230 442.301 231.8C431.501 236.5 423.801 246.3 421.801 257.9C418.901 274.1 415.501 300.4 417.601 324.5C417.601 324.5 444.001 291.1 467.501 278.7C460.901 268.1 453.501 252 449.301 229.1Z" fill="#1D2643"/>
<path d="M547.6 229.1C547.6 229.1 550.5 230 554.6 231.8C565.4 236.5 573.1 246.3 575.1 257.9C578 274.1 581.4 300.4 579.3 324.5C579.3 324.5 552.9 291.1 529.4 278.7C536 268.1 543.5 252 547.6 229.1Z" fill="#1D2643"/>
<path d="M498.5 175.1C511.81 175.1 522.6 164.31 522.6 151C522.6 137.69 511.81 126.9 498.5 126.9C485.19 126.9 474.4 137.69 474.4 151C474.4 164.31 485.19 175.1 498.5 175.1Z" fill="white"/>
<path d="M260.7 286.4C263.6 286.4 266.4 287.1 268.9 288.3C269.4 275.1 280.3 264.6 293.6 264.6C297.3 264.6 300.9 265.5 304 266.9C305 252.9 316.7 241.9 330.9 241.9C343.6 241.9 354.2 250.7 357.1 262.5C363.8 263.6 369.2 268.6 370.8 275.2C383.2 276.3 393 286.7 393 299.4C393 312.8 382.1 323.7 368.7 323.7C368.3 323.7 367.8 323.7 367.4 323.6V323.7H260.7C250.4 323.7 242.1 315.4 242.1 305.1C242.1 294.8 250.4 286.4 260.7 286.4Z" fill="#1D2643"/>
<path d="M722.201 101.4C718.601 101.4 715.201 102.3 712.201 103.7C711.501 87.6 698.301 74.7 682.001 74.7C677.401 74.7 673.101 75.7 669.201 77.6C667.901 60.5 653.701 47 636.201 47C620.601 47 607.601 57.8 604.101 72.2C595.801 73.5 589.201 79.7 587.301 87.7C572.101 89 560.201 101.8 560.201 117.3C560.201 133.7 573.501 147.1 590.001 147.1C590.501 147.1 591.001 147 591.601 147V147.1H722.201C734.801 147.1 745.001 136.9 745.001 124.3C745.001 111.6 734.801 101.4 722.201 101.4Z" fill="#1D2643"/>
<path d="M516.301 295.2H498.401H480.501L471.301 318.6C471.301 318.6 485.201 324.6 498.301 324.6C511.401 324.6 525.301 318.6 525.301 318.6L516.301 295.2Z" fill="#1D2643"/>
<defs>
<linearGradient id="paint0_linear" x1="234.5" y1="232" x2="334" y2="294" gradientUnits="userSpaceOnUse">
<stop stop-color="#1A81F7"/>
<stop offset="1" stop-color="#284D82"/>
</linearGradient>
<linearGradient id="paint1_linear" x1="126" y1="390" x2="568.899" y2="958.497" gradientUnits="userSpaceOnUse">
<stop stop-color="#1985FF"/>
<stop offset="1" stop-color="#2E3A59"/>
</linearGradient>
<linearGradient id="paint2_linear" x1="528.818" y1="317.654" x2="56.0652" y2="621.874" gradientUnits="userSpaceOnUse">
<stop offset="0.2738" stop-color="#FCB300"/>
<stop offset="0.3728" stop-color="#FCAD02"/>
<stop offset="0.5079" stop-color="#FB9B08"/>
<stop offset="0.664" stop-color="#FB7F11"/>
<stop offset="0.8342" stop-color="#FA571D"/>
<stop offset="1" stop-color="#F9292C"/>
</linearGradient>
<linearGradient id="paint3_linear" x1="498.464" y1="500.381" x2="498.464" y2="313.115" gradientUnits="userSpaceOnUse">
<stop offset="0.2738" stop-color="#FCB300"/>
<stop offset="0.3728" stop-color="#FCAD02"/>
<stop offset="0.5079" stop-color="#FB9B08"/>
<stop offset="0.664" stop-color="#FB7F11"/>
<stop offset="0.8342" stop-color="#FA571D"/>
<stop offset="1" stop-color="#F9292C"/>
</linearGradient>
<linearGradient id="paint4_linear" x1="894.068" y1="322.272" x2="750.734" y2="322.272" gradientUnits="userSpaceOnUse">
<stop stop-color="#2072EB"/>
<stop offset="0.500103" stop-color="#0593FF"/>
<stop offset="1" stop-color="#5CB4FF"/>
</linearGradient>
<linearGradient id="paint5_linear" x1="859.584" y1="333.305" x2="785.218" y2="333.305" gradientUnits="userSpaceOnUse">
<stop stop-color="#2072EB"/>
<stop offset="0.500103" stop-color="#0593FF"/>
<stop offset="1" stop-color="#5CB4FF"/>
</linearGradient>
<linearGradient id="paint6_linear" x1="681.983" y1="398.571" x2="774.627" y2="398.571" gradientUnits="userSpaceOnUse">
<stop stop-color="#6A0587"/>
<stop offset="0.246" stop-color="#660681"/>
<stop offset="0.5818" stop-color="#5A0B6F"/>
<stop offset="0.9679" stop-color="#461153"/>
<stop offset="1" stop-color="#441250"/>
</linearGradient>
<linearGradient id="paint7_linear" x1="677.608" y1="378.81" x2="783.563" y2="378.81" gradientUnits="userSpaceOnUse">
<stop stop-color="#6A0587"/>
<stop offset="0.246" stop-color="#660681"/>
<stop offset="0.5818" stop-color="#5A0B6F"/>
<stop offset="0.9679" stop-color="#461153"/>
<stop offset="1" stop-color="#441250"/>
</linearGradient>
<linearGradient id="paint8_linear" x1="688.545" y1="403.191" x2="702.707" y2="403.191" gradientUnits="userSpaceOnUse">
<stop stop-color="#6A0587"/>
<stop offset="0.246" stop-color="#660681"/>
<stop offset="0.5818" stop-color="#5A0B6F"/>
<stop offset="0.9679" stop-color="#461153"/>
<stop offset="1" stop-color="#441250"/>
</linearGradient>
</defs>
</svg>
