<svg width="959" height="226" viewBox="0 0 959 226" fill="none" xmlns="http://www.w3.org/2000/svg">
<path d="M88.0915 85.1405C88.0915 70.5688 86.1689 60.2472 82.3236 54.1757C78.6806 48.1042 72.3055 45.0684 63.1982 45.0684C60.3649 45.0684 57.4303 45.2708 54.3945 45.6756C51.3588 45.8779 48.4242 46.1815 45.5908 46.5863V169.838H0.35791V15.6215C4.20321 14.6096 8.65567 13.5977 13.7153 12.5857C18.9773 11.3714 24.4416 10.3595 30.1084 9.54997C35.9776 8.53804 41.9479 7.82969 48.0194 7.42493C54.091 6.81777 60.0613 6.51419 65.9304 6.51419C77.4663 6.51419 86.776 8.03208 93.8595 11.0679C101.145 13.9012 107.116 17.3417 111.77 21.3894C118.247 16.7346 125.634 13.0917 133.932 10.4607C142.432 7.82969 150.224 6.51419 157.307 6.51419C170.057 6.51419 180.48 8.33565 188.575 11.9786C196.873 15.4191 203.451 20.3775 208.308 26.8538C213.165 33.3301 216.504 41.0207 218.326 49.9256C220.147 58.8305 221.058 68.7474 221.058 79.6761V169.838H175.825V85.1405C175.825 70.5688 173.902 60.2472 170.057 54.1757C166.414 48.1042 160.039 45.0684 150.932 45.0684C148.503 45.0684 145.063 45.6756 140.61 46.8899C136.36 48.1042 132.818 49.622 129.985 51.4435C131.402 56.0983 132.312 61.0568 132.717 66.3187C133.122 71.3784 133.324 76.8428 133.324 82.7119V169.838H88.0915V85.1405Z" fill="#192038"/>
<path d="M313.253 138.266C317.705 138.266 321.956 138.165 326.003 137.963C330.051 137.76 333.289 137.457 335.718 137.052V102.748C333.896 102.343 331.164 101.938 327.521 101.534C323.878 101.129 320.539 100.926 317.503 100.926C313.253 100.926 309.205 101.23 305.36 101.837C301.717 102.242 298.479 103.153 295.646 104.569C292.812 105.986 290.586 107.909 288.967 110.337C287.348 112.766 286.538 115.802 286.538 119.445C286.538 126.528 288.866 131.487 293.521 134.32C298.378 136.951 304.955 138.266 313.253 138.266ZM309.61 5.90705C322.967 5.90705 334.099 7.42492 343.003 10.4607C351.908 13.4964 358.992 17.8477 364.254 23.5145C369.718 29.1812 373.564 36.0623 375.79 44.1577C378.016 52.253 379.129 61.2591 379.129 71.176V165.285C372.653 166.701 363.647 168.32 352.111 170.142C340.575 172.166 326.61 173.178 310.217 173.178C299.896 173.178 290.485 172.267 281.985 170.446C273.687 168.624 266.502 165.689 260.431 161.642C254.359 157.392 249.704 151.927 246.466 145.249C243.228 138.57 241.609 130.373 241.609 120.659C241.609 111.349 243.43 103.456 247.073 96.98C250.919 90.5037 255.978 85.3429 262.252 81.4976C268.526 77.6523 275.711 74.9201 283.806 73.301C291.901 71.4795 300.3 70.5688 309.003 70.5688C314.872 70.5688 320.033 70.8724 324.485 71.4795C329.14 71.8843 332.884 72.4915 335.718 73.301V69.0509C335.718 61.3603 333.39 55.1876 328.735 50.5328C324.081 45.8779 315.985 43.5505 304.449 43.5505C296.759 43.5505 289.169 44.1577 281.681 45.372C274.193 46.3839 267.717 47.9018 262.252 49.9256L256.484 13.4964C259.115 12.6869 262.353 11.8774 266.199 11.0679C270.246 10.0559 274.598 9.24639 279.252 8.63923C283.907 7.82969 288.764 7.22254 293.824 6.81778C299.086 6.21062 304.348 5.90705 309.61 5.90705Z" fill="#192038"/>
<path d="M388.657 226C385.824 226 381.675 225.696 376.211 225.089C370.544 224.482 365.282 223.369 360.425 221.75L366.496 185.017C369.532 186.029 372.365 186.737 374.996 187.142C377.425 187.547 380.562 187.749 384.407 187.749C391.491 187.749 396.449 185.624 399.282 181.374C402.116 177.124 403.533 170.951 403.533 162.856V16.7566C403.533 16.7566 402.927 11.543 421.075 4.94352C439.224 -1.65593 448.765 0.257891 448.765 0.257891V164.07C448.765 185.118 443.605 200.702 433.283 210.821C422.961 220.94 408.086 226 388.657 226Z" fill="#192038"/>
<path d="M624.146 89.6942C624.146 102.242 622.325 113.778 618.682 124.302C615.039 134.623 609.777 143.528 602.896 151.017C596.015 158.302 587.717 163.969 578.002 168.017C568.49 172.065 557.764 174.088 545.823 174.088C534.085 174.088 523.359 172.065 513.644 168.017C504.132 163.969 495.936 158.302 489.055 151.017C482.173 143.528 476.81 134.623 472.965 124.302C469.12 113.778 467.197 102.242 467.197 89.6942C467.197 77.1463 469.12 65.7116 472.965 55.39C477.013 45.0684 482.477 36.2647 489.358 28.9788C496.442 21.693 504.739 16.0263 514.251 11.9786C523.966 7.93089 534.49 5.90705 545.823 5.90705C557.359 5.90705 567.883 7.93089 577.395 11.9786C587.11 16.0263 595.407 21.693 602.289 28.9788C609.17 36.2647 614.533 45.0684 618.378 55.39C622.223 65.7116 624.146 77.1463 624.146 89.6942ZM578.002 89.6942C578.002 75.7296 575.169 64.8009 569.502 56.9079C564.038 48.8125 556.145 44.7648 545.823 44.7648C535.502 44.7648 527.508 48.8125 521.841 56.9079C516.174 64.8009 513.341 75.7296 513.341 89.6942C513.341 103.659 516.174 114.79 521.841 123.088C527.508 131.183 535.502 135.231 545.823 135.231C556.145 135.231 564.038 131.183 569.502 123.088C575.169 114.79 578.002 103.659 578.002 89.6942Z" fill="#192038"/>
<path d="M742.22 50.2292C738.172 49.2173 733.416 48.2054 727.952 47.1934C722.488 45.9791 716.619 45.372 710.345 45.372C707.511 45.372 704.071 45.6756 700.023 46.2827C696.178 46.6875 693.243 47.1934 691.219 47.8006V169.838H645.986V18.6572C654.082 15.8239 663.594 13.1929 674.523 10.7643C685.654 8.13327 697.999 6.81778 711.559 6.81778C713.988 6.81778 716.922 7.02016 720.363 7.42493C723.803 7.62731 727.244 8.03207 730.684 8.63923C734.125 9.044 737.565 9.65115 741.006 10.4607C744.446 11.0678 747.381 11.8774 749.81 12.8893L742.22 50.2292Z" fill="#192038"/>
<path d="M891.152 137.356C899.449 137.356 905.319 136.546 908.759 134.927C912.2 133.308 913.92 130.171 913.92 125.516C913.92 121.873 911.694 118.736 907.241 116.105C902.789 113.272 896.009 110.135 886.902 106.694C879.818 104.063 873.342 101.331 867.473 98.4979C861.806 95.6645 856.949 92.3251 852.901 88.4798C848.853 84.4322 845.716 79.6761 843.49 74.2117C841.264 68.7474 840.151 62.1699 840.151 54.4793C840.151 39.5028 845.716 27.6633 856.848 18.9608C867.979 10.2583 883.259 5.90705 902.688 5.90705C912.402 5.90705 921.712 6.81777 930.617 8.63923C939.521 10.2583 946.605 12.0798 951.867 14.1036C951.867 14.1036 944.085 39.5909 940.421 42.3362C936.756 45.0815 932.944 45.8779 926.67 44.4613C920.599 43.0446 913.717 42.3362 906.027 42.3362C891.86 42.3362 884.776 46.2827 884.776 54.1757C884.776 55.9972 885.08 57.6162 885.687 59.0329C886.294 60.4496 887.509 61.8663 889.33 63.283C891.152 64.4973 893.58 65.914 896.616 67.5331C899.854 68.9497 903.902 70.5688 908.759 72.3903C918.676 76.0332 926.872 79.6761 933.349 83.319C939.825 86.7596 944.885 90.6049 948.528 94.8549C952.373 98.9026 955.004 103.456 956.421 108.516C958.04 113.576 958.849 119.445 958.849 126.123C958.849 141.909 952.879 153.85 940.938 161.945C929.2 170.041 912.503 174.088 890.848 174.088C876.681 174.088 864.842 172.874 855.33 170.446C846.02 168.017 839.544 165.993 835.901 164.374L840.143 146.833C840.143 146.833 841.793 136.933 848.392 133.634C854.992 130.334 859.074 133.106 867.169 134.927C875.264 136.546 883.259 137.356 891.152 137.356Z" fill="#192038"/>
<path d="M812.691 169.838H767.458V22.9936C767.458 22.9936 766.852 17.78 785.001 11.1805C803.15 4.58107 812.691 6.49488 812.691 6.49488V169.838Z" fill="#192038"/>
</svg>
