<svg width="1616" height="523" viewBox="0 0 1616 523" fill="none" xmlns="http://www.w3.org/2000/svg">
<mask id="mask0" mask-type="alpha" maskUnits="userSpaceOnUse" x="0" y="0" width="523" height="523">
<rect width="522.96" height="522.96" rx="261.48" fill="url(#paint0_linear)"/>
</mask>
<g mask="url(#mask0)">
<path d="M50.9895 397.451C36.5579 400.658 28.3746 413.801 24.5552 424.278C22.7169 429.32 18.9064 433.637 13.7207 435.02C7.29074 436.734 3.00825 442.803 3.54812 449.436L6.96518 491.417C9.67823 524.749 37.5209 550.417 70.9629 550.417H395.382C467.067 550.417 563.247 454.893 495.506 431.444C461.513 419.677 453.669 418.37 415.754 422.292C377.84 426.214 379.147 447.133 360.843 449.748C346.201 451.839 330.337 439.288 324.236 432.751C316.392 423.599 297.827 399.02 286.322 373.918C271.94 342.541 274.555 324.237 260.174 326.852C245.792 329.467 220.952 410.525 210.492 410.525C200.033 410.525 200.033 397.451 183.037 397.451C166.041 397.451 159.504 432.751 143.815 432.751C128.126 432.751 118.974 417.062 108.515 410.525C98.056 403.988 74.5228 392.222 50.9895 397.451Z" fill="white"/>
<rect x="-5.22998" y="-5.23096" width="533.419" height="533.419" rx="266.71" fill="url(#paint1_linear)"/>
<g filter="url(#filter0_d)">
<path d="M27.1373 369.27C11.5226 372.435 2.5486 385.233 -1.7519 395.662C-3.96058 401.018 -8.15867 405.616 -13.7882 406.986C-20.8928 408.714 -25.6659 415.377 -25.016 422.66L-21.26 464.753C-18.3195 497.705 9.29086 522.961 42.374 522.961H417.345C490.315 522.961 586.356 425.394 516.772 403.424C479.329 391.601 470.689 390.288 428.926 394.229C387.163 398.169 388.603 419.187 368.442 421.814C352.312 423.916 334.839 411.305 328.119 404.737C319.478 395.542 299.029 370.847 286.356 345.626C270.515 314.099 273.395 295.709 257.554 298.336C241.713 300.963 214.351 382.406 202.83 382.406C191.309 382.406 191.309 369.27 172.588 369.27C153.866 369.27 146.666 404.737 129.385 404.737C112.103 404.737 102.023 388.974 90.5018 382.406C78.981 375.838 53.0591 364.016 27.1373 369.27Z" fill="#F7F9FC"/>
</g>
<g filter="url(#filter1_d)">
<path d="M27.1373 413.722C11.5226 416.887 2.5486 429.684 -1.7519 440.113C-3.96058 445.469 -8.15867 450.068 -13.7882 451.437C-20.8928 453.165 -25.6659 459.829 -25.016 467.111L-21.26 509.204C-18.3195 542.156 9.29086 567.412 42.374 567.412H417.345C490.315 567.412 586.356 469.846 516.772 447.875C479.329 436.053 470.689 434.739 428.926 438.68C387.163 442.621 388.603 463.638 368.442 466.265C352.312 468.367 334.839 455.757 328.119 449.189C319.478 439.994 299.029 415.298 286.356 390.077C270.515 358.551 273.395 340.16 257.554 342.788C241.713 345.415 214.351 426.858 202.83 426.858C191.309 426.858 191.309 413.722 172.588 413.722C153.866 413.722 146.666 449.189 129.385 449.189C112.103 449.189 102.023 433.426 90.5018 426.858C78.981 420.29 53.0591 408.467 27.1373 413.722Z" fill="url(#paint2_linear)"/>
</g>
<g filter="url(#filter2_d)">
<path fill-rule="evenodd" clip-rule="evenodd" d="M191.53 148.229C191.53 108.258 222.839 77.0135 261.48 77.0135C284.797 77.0135 321.437 96.5996 328.099 138.237C329.32 163.867 319.807 176.975 309.394 191.326C305.597 196.559 301.68 201.957 298.12 208.187C285.38 225.727 274.585 253.778 269.375 267.317C267.659 271.776 266.549 274.66 266.175 275.077C263.671 277.866 259.293 277.871 256.785 275.077C256.419 274.67 255.467 272.801 253.955 269.831C248.627 259.368 236.339 235.237 218.177 213.183C198.269 189.009 191.53 166.443 191.53 148.229ZM259.814 173.21C274.532 173.21 286.462 161.28 286.462 146.563C286.462 131.846 274.532 119.915 259.814 119.915C245.097 119.915 233.167 131.846 233.167 146.563C233.167 161.28 245.097 173.21 259.814 173.21Z" fill="white"/>
</g>
</g>
<path d="M745.092 253.141C745.092 238.569 743.169 228.247 739.324 222.176C735.681 216.104 729.306 213.068 720.198 213.068C717.365 213.068 714.43 213.271 711.395 213.676C708.359 213.878 705.424 214.182 702.591 214.586V337.838H657.358V183.621C661.203 182.61 665.656 181.598 670.715 180.586C675.977 179.371 681.442 178.359 687.108 177.55C692.978 176.538 698.948 175.83 705.019 175.425C711.091 174.818 717.061 174.514 722.93 174.514C734.466 174.514 743.776 176.032 750.859 179.068C758.145 181.901 764.116 185.342 768.77 189.389C775.247 184.735 782.634 181.092 790.932 178.461C799.432 175.83 807.224 174.514 814.307 174.514C827.057 174.514 837.48 176.336 845.575 179.979C853.873 183.419 860.451 188.378 865.308 194.854C870.165 201.33 873.504 209.021 875.326 217.926C877.147 226.831 878.058 236.747 878.058 247.676V337.838H832.825V253.141C832.825 238.569 830.902 228.247 827.057 222.176C823.414 216.104 817.039 213.068 807.932 213.068C805.503 213.068 802.063 213.676 797.61 214.89C793.36 216.104 789.818 217.622 786.985 219.444C788.402 224.098 789.312 229.057 789.717 234.319C790.122 239.378 790.324 244.843 790.324 250.712V337.838H745.092V253.141Z" fill="#192038"/>
<path d="M970.253 306.266C974.705 306.266 978.956 306.165 983.003 305.963C987.051 305.76 990.289 305.457 992.718 305.052V270.748C990.896 270.343 988.164 269.938 984.521 269.534C980.878 269.129 977.539 268.926 974.503 268.926C970.253 268.926 966.205 269.23 962.36 269.837C958.717 270.242 955.479 271.153 952.646 272.569C949.812 273.986 947.586 275.909 945.967 278.337C944.348 280.766 943.538 283.802 943.538 287.445C943.538 294.528 945.866 299.487 950.521 302.32C955.378 304.951 961.955 306.266 970.253 306.266ZM966.61 173.907C979.967 173.907 991.099 175.425 1000 178.461C1008.91 181.496 1015.99 185.848 1021.25 191.514C1026.72 197.181 1030.56 204.062 1032.79 212.158C1035.02 220.253 1036.13 229.259 1036.13 239.176V333.285C1029.65 334.701 1020.65 336.32 1009.11 338.142C997.575 340.166 983.61 341.178 967.217 341.178C956.896 341.178 947.485 340.267 938.985 338.446C930.687 336.624 923.502 333.689 917.431 329.642C911.359 325.392 906.704 319.927 903.466 313.249C900.228 306.57 898.609 298.373 898.609 288.659C898.609 279.349 900.43 271.456 904.073 264.98C907.919 258.504 912.978 253.343 919.252 249.498C925.526 245.652 932.711 242.92 940.806 241.301C948.901 239.48 957.3 238.569 966.003 238.569C971.872 238.569 977.033 238.872 981.485 239.48C986.14 239.884 989.884 240.491 992.718 241.301V237.051C992.718 229.36 990.39 223.188 985.735 218.533C981.081 213.878 972.985 211.551 961.449 211.551C953.759 211.551 946.169 212.158 938.681 213.372C931.193 214.384 924.717 215.902 919.252 217.926L913.484 181.496C916.115 180.687 919.353 179.877 923.199 179.068C927.246 178.056 931.598 177.246 936.252 176.639C940.907 175.83 945.764 175.223 950.824 174.818C956.086 174.211 961.348 173.907 966.61 173.907Z" fill="#192038"/>
<path d="M1045.66 394C1042.82 394 1038.68 393.696 1033.21 393.089C1027.54 392.482 1022.28 391.369 1017.42 389.75L1023.5 353.017C1026.53 354.029 1029.37 354.737 1032 355.142C1034.42 355.547 1037.56 355.749 1041.41 355.749C1048.49 355.749 1053.45 353.624 1056.28 349.374C1059.12 345.124 1060.53 338.951 1060.53 330.856V184.757C1060.53 184.757 1059.93 179.543 1078.08 172.944C1096.22 166.344 1105.77 168.258 1105.77 168.258V332.07C1105.77 353.118 1100.6 368.702 1090.28 378.821C1079.96 388.94 1065.09 394 1045.66 394Z" fill="#192038"/>
<path d="M1281.15 257.694C1281.15 270.242 1279.32 281.778 1275.68 292.302C1272.04 302.623 1266.78 311.528 1259.9 319.017C1253.01 326.302 1244.72 331.969 1235 336.017C1225.49 340.065 1214.76 342.088 1202.82 342.088C1191.09 342.088 1180.36 340.065 1170.64 336.017C1161.13 331.969 1152.94 326.302 1146.05 319.017C1139.17 311.528 1133.81 302.623 1129.96 292.302C1126.12 281.778 1124.2 270.242 1124.2 257.694C1124.2 245.146 1126.12 233.712 1129.96 223.39C1134.01 213.068 1139.48 204.265 1146.36 196.979C1153.44 189.693 1161.74 184.026 1171.25 179.979C1180.97 175.931 1191.49 173.907 1202.82 173.907C1214.36 173.907 1224.88 175.931 1234.4 179.979C1244.11 184.026 1252.41 189.693 1259.29 196.979C1266.17 204.265 1271.53 213.068 1275.38 223.39C1279.22 233.712 1281.15 245.146 1281.15 257.694ZM1235 257.694C1235 243.73 1232.17 232.801 1226.5 224.908C1221.04 216.813 1213.14 212.765 1202.82 212.765C1192.5 212.765 1184.51 216.813 1178.84 224.908C1173.17 232.801 1170.34 243.73 1170.34 257.694C1170.34 271.659 1173.17 282.79 1178.84 291.088C1184.51 299.183 1192.5 303.231 1202.82 303.231C1213.14 303.231 1221.04 299.183 1226.5 291.088C1232.17 282.79 1235 271.659 1235 257.694Z" fill="#192038"/>
<path d="M1399.22 218.229C1395.17 217.217 1390.42 216.205 1384.95 215.193C1379.49 213.979 1373.62 213.372 1367.34 213.372C1364.51 213.372 1361.07 213.676 1357.02 214.283C1353.18 214.687 1350.24 215.193 1348.22 215.801V337.838H1302.99V186.657C1311.08 183.824 1320.59 181.193 1331.52 178.764C1342.65 176.133 1355 174.818 1368.56 174.818C1370.99 174.818 1373.92 175.02 1377.36 175.425C1380.8 175.627 1384.24 176.032 1387.68 176.639C1391.12 177.044 1394.57 177.651 1398.01 178.461C1401.45 179.068 1404.38 179.877 1406.81 180.889L1399.22 218.229Z" fill="#192038"/>
<path d="M1548.15 305.356C1556.45 305.356 1562.32 304.546 1565.76 302.927C1569.2 301.308 1570.92 298.171 1570.92 293.516C1570.92 289.873 1568.69 286.736 1564.24 284.105C1559.79 281.272 1553.01 278.135 1543.9 274.694C1536.82 272.063 1530.34 269.331 1524.47 266.498C1518.81 263.664 1513.95 260.325 1509.9 256.48C1505.85 252.432 1502.72 247.676 1500.49 242.212C1498.26 236.747 1497.15 230.17 1497.15 222.479C1497.15 207.503 1502.72 195.663 1513.85 186.961C1524.98 178.258 1540.26 173.907 1559.69 173.907C1569.4 173.907 1578.71 174.818 1587.62 176.639C1596.52 178.258 1603.6 180.08 1608.87 182.104C1608.87 182.104 1601.08 207.591 1597.42 210.336C1593.76 213.082 1589.94 213.878 1583.67 212.461C1577.6 211.045 1570.72 210.336 1563.03 210.336C1548.86 210.336 1541.78 214.283 1541.78 222.176C1541.78 223.997 1542.08 225.616 1542.69 227.033C1543.29 228.45 1544.51 229.866 1546.33 231.283C1548.15 232.497 1550.58 233.914 1553.62 235.533C1556.85 236.95 1560.9 238.569 1565.76 240.39C1575.68 244.033 1583.87 247.676 1590.35 251.319C1596.83 254.76 1601.88 258.605 1605.53 262.855C1609.37 266.903 1612 271.456 1613.42 276.516C1615.04 281.576 1615.85 287.445 1615.85 294.123C1615.85 309.909 1609.88 321.85 1597.94 329.945C1586.2 338.041 1569.5 342.088 1547.85 342.088C1533.68 342.088 1521.84 340.874 1512.33 338.446C1503.02 336.017 1496.54 333.993 1492.9 332.374L1497.14 314.833C1497.14 314.833 1498.79 304.933 1505.39 301.634C1511.99 298.334 1516.07 301.106 1524.17 302.927C1532.26 304.546 1540.26 305.356 1548.15 305.356Z" fill="#192038"/>
<path d="M1469.69 337.838H1424.46V190.994C1424.46 190.994 1423.85 185.78 1442 179.181C1460.15 172.581 1469.69 174.495 1469.69 174.495V337.838Z" fill="#192038"/>
<defs>
<filter id="filter0_d" x="-37.0752" y="282.088" width="605.942" height="264.873" filterUnits="userSpaceOnUse" color-interpolation-filters="sRGB">
<feFlood flood-opacity="0" result="BackgroundImageFix"/>
<feColorMatrix in="SourceAlpha" type="matrix" values="0 0 0 0 0 0 0 0 0 0 0 0 0 0 0 0 0 0 127 0"/>
<feOffset dx="8" dy="4"/>
<feGaussianBlur stdDeviation="10"/>
<feColorMatrix type="matrix" values="0 0 0 0 0 0 0 0 0 0 0 0 0 0 0 0 0 0 0.2 0"/>
<feBlend mode="normal" in2="BackgroundImageFix" result="effect1_dropShadow"/>
<feBlend mode="normal" in="SourceGraphic" in2="effect1_dropShadow" result="shape"/>
</filter>
<filter id="filter1_d" x="-37.0752" y="326.539" width="605.942" height="264.873" filterUnits="userSpaceOnUse" color-interpolation-filters="sRGB">
<feFlood flood-opacity="0" result="BackgroundImageFix"/>
<feColorMatrix in="SourceAlpha" type="matrix" values="0 0 0 0 0 0 0 0 0 0 0 0 0 0 0 0 0 0 127 0"/>
<feOffset dx="8" dy="4"/>
<feGaussianBlur stdDeviation="10"/>
<feColorMatrix type="matrix" values="0 0 0 0 0 0 0 0 0 0 0 0 0 0 0 0 0 0 0.2 0"/>
<feBlend mode="normal" in2="BackgroundImageFix" result="effect1_dropShadow"/>
<feBlend mode="normal" in="SourceGraphic" in2="effect1_dropShadow" result="shape"/>
</filter>
<filter id="filter2_d" x="179.53" y="61.0135" width="176.675" height="240.157" filterUnits="userSpaceOnUse" color-interpolation-filters="sRGB">
<feFlood flood-opacity="0" result="BackgroundImageFix"/>
<feColorMatrix in="SourceAlpha" type="matrix" values="0 0 0 0 0 0 0 0 0 0 0 0 0 0 0 0 0 0 127 0"/>
<feOffset dx="8" dy="4"/>
<feGaussianBlur stdDeviation="10"/>
<feColorMatrix type="matrix" values="0 0 0 0 0 0 0 0 0 0 0 0 0 0 0 0 0 0 0.2 0"/>
<feBlend mode="normal" in2="BackgroundImageFix" result="effect1_dropShadow"/>
<feBlend mode="normal" in="SourceGraphic" in2="effect1_dropShadow" result="shape"/>
</filter>
<linearGradient id="paint0_linear" x1="0" y1="444.8" x2="508.749" y2="444.8" gradientUnits="userSpaceOnUse">
<stop stop-color="#59A7FF"/>
<stop offset="1" stop-color="#1985FF"/>
</linearGradient>
<linearGradient id="paint1_linear" x1="528.067" y1="176.193" x2="-5.10699" y2="176.193" gradientUnits="userSpaceOnUse">
<stop stop-color="#2072EB"/>
<stop offset="0.500103" stop-color="#0593FF"/>
<stop offset="1" stop-color="#5CB4FF"/>
</linearGradient>
<linearGradient id="paint2_linear" x1="516.321" y1="482.87" x2="-5.107" y2="482.87" gradientUnits="userSpaceOnUse">
<stop stop-color="#D8E1F1"/>
<stop offset="0.481831" stop-color="#E4E9F2"/>
<stop offset="1" stop-color="#EDF0F4"/>
</linearGradient>
</defs>
</svg>
